<svg version="1.1" id="Layer_1" xmlns="http://www.w3.org/2000/svg" xmlns:xlink="http://www.w3.org/1999/xlink" x="0px" y="0px"
	 width="100%" viewBox="0 0 153 109" enable-background="new 0 0 153 109" xml:space="preserve">
<path fill="#020304" opacity="1.000000" stroke="none" 
	d="
M154.000000,106.000000 
	C154.000000,107.319931 154.000000,108.639854 154.000000,110.000000 
	C140.979126,110.000000 127.958221,110.000000 114.271332,109.710350 
	C103.219879,88.615250 92.834427,67.809799 82.024338,46.153687 
	C70.961693,68.209076 60.480846,89.104538 50.000000,110.000000 
	C33.666668,110.000000 17.333334,110.000000 1.273630,109.289612 
	C8.246398,94.992104 14.945538,81.404976 21.990448,67.116554 
	C25.153584,73.437126 27.894016,78.913048 31.145901,85.410950 
	C45.187519,56.707893 58.586143,29.319202 72.344391,1.957274 
	C79.651550,15.776176 86.599098,29.568321 93.822258,43.907619 
	C98.730835,34.205166 103.397232,24.981411 108.361862,15.168147 
	C118.120247,34.765087 127.465187,53.626781 136.900116,72.443359 
	C142.527084,83.665512 148.295288,94.816841 154.000000,106.000000 
z"/>
<path fill="#F6F6F7" opacity="1.000000" stroke="none" 
	d="
M71.984764,1.930514 
	C58.586143,29.319202 45.187519,56.707893 31.145901,85.410950 
	C27.894016,78.913048 25.153584,73.437126 21.990448,67.116554 
	C14.945538,81.404976 8.246398,94.992104 1.273630,108.789612 
	C1.000000,73.088196 1.000000,37.176395 1.000000,1.000000 
	C24.353561,1.000000 47.708122,1.000000 71.526878,1.232618 
	C71.991074,1.465235 71.984764,1.930514 71.984764,1.930514 
z"/>
<path fill="#F5F6F6" opacity="1.000000" stroke="none" 
	d="
M72.344391,1.957274 
	C71.984764,1.930514 71.991074,1.465235 71.995537,1.232618 
	C99.269241,1.000000 126.538483,1.000000 154.000000,1.000000 
	C154.000000,35.687325 154.000000,70.375000 154.000000,105.531342 
	C148.295288,94.816841 142.527084,83.665512 136.900116,72.443359 
	C127.465187,53.626781 118.120247,34.765087 108.361862,15.168147 
	C103.397232,24.981411 98.730835,34.205166 93.822258,43.907619 
	C86.599098,29.568321 79.651550,15.776176 72.344391,1.957274 
z"/>
<path fill="#30AFFA" opacity="1.000000" stroke="none" 
	d="
M50.468658,110.000000 
	C60.480846,89.104538 70.961693,68.209076 82.024338,46.153687 
	C92.834427,67.809799 103.219879,88.615250 113.802673,109.710350 
	C92.979103,110.000000 71.958214,110.000000 50.468658,110.000000 
z"/>
</svg>