<?xml version="1.0" standalone="no"?>
<!DOCTYPE svg PUBLIC "-//W3C//DTD SVG 20010904//EN"
 "http://www.w3.org/TR/2001/REC-SVG-20010904/DTD/svg10.dtd">
<svg version="1.0" xmlns="http://www.w3.org/2000/svg"
 width="153.000000pt" height="109.000000pt" viewBox="0 0 153.000000 109.000000"
 preserveAspectRatio="xMidYMid meet">

<g transform="translate(0.000000,109.000000) scale(0.100000,-0.100000)"
fill="#000000" stroke="none">
<path d="M601 858 c-60 -123 -152 -310 -205 -416 l-96 -193 -42 85 c-23 48
-45 86 -48 86 -6 0 -52 -90 -146 -287 l-63 -133 247 0 247 0 155 310 c85 171
157 310 160 310 3 0 75 -139 160 -310 l155 -310 202 0 c163 0 203 3 203 13 0
16 -447 927 -455 927 -3 0 -37 -63 -75 -140 l-70 -141 -105 211 c-58 115 -107
210 -111 210 -3 0 -54 -100 -113 -222z"/>
</g>
</svg>
